<svg xmlns="http://www.w3.org/2000/svg" viewBox="0 0 64 64" id="download">
  <path fill="#231f20" d="M49,18a14.05,14.05,0,0,0-4.44.72,16.5,16.5,0,0,0-32-.5A14,14,0,0,0,15,46h9a2,2,0,0,0,0-4H15a10,10,0,0,1-.66-20,2,2,0,0,0,1.84-1.66A12.5,12.5,0,0,1,41,21.74a2,2,0,0,0,3,1.61A10,10,0,1,1,49,42H40a2,2,0,0,0,0,4h9A14,14,0,0,0,49,18Z"></path>
  <path fill="#231f20" d="M36.72,49.46L34,51.73V37a2,2,0,0,0-4,0V51.73l-2.72-2.27a2,2,0,0,0-2.56,3.07l6,5,0.09,0.06,0.13,0.09,0.19,0.1,0.14,0.06,0.22,0.07,0.13,0a1.87,1.87,0,0,0,.75,0l0.13,0,0.22-.07,0.14-.06,0.19-.1,0.13-.09,0.09-.06,6-5A2,2,0,1,0,36.72,49.46Z"></path>
</svg>
